<svg width="256" height="76" viewBox="0 0 256 76" fill="none" style="background-color:blue" xmlns="http://www.w3.org/2000/svg">
<path d="M92 27H95.2162L101.595 48.0063L108.028 27H111.083L117.694 48.0063L123.894 27H127.111L119.284 52H116.05L109.386 31.1168L103.15 52H99.9155L92 27Z" fill="#F2F2F2"/>
<path d="M144.808 27H148.399L154.868 37.3272L161.479 27H164.874L156.226 40.1597V52H153.188V40.1597L144.808 27Z" fill="#F2F2F2"/>
<path d="M185.609 27H189.45L203.28 47.9184V27H206.318V52H202.476L188.646 31.0464V52H185.609V27Z" fill="#F2F2F2"/>
<path d="M233.127 29.639V49.361H236.826C237.362 49.361 237.803 49.3551 238.148 49.3434C238.506 49.3317 238.982 49.2965 239.578 49.2379C240.185 49.1792 240.704 49.0912 241.132 48.974C241.573 48.8567 242.067 48.6866 242.615 48.4638C243.175 48.2409 243.67 47.9711 244.098 47.6545C244.527 47.3378 244.956 46.9331 245.385 46.4405C245.814 45.9479 246.189 45.3908 246.511 44.7692C247.297 43.2796 247.69 41.4675 247.69 39.3329C247.69 37.855 247.47 36.5238 247.029 35.3392C246.6 34.1429 246.022 33.1752 245.296 32.4363C244.581 31.6857 243.813 31.0934 242.991 30.6594C242.181 30.2254 241.329 29.9322 240.436 29.7797C239.911 29.6859 239.119 29.639 238.059 29.639H233.127ZM237.952 27C239.596 27 241.091 27.1642 242.437 27.4926C243.783 27.8093 244.908 28.2608 245.814 28.8473C246.731 29.4337 247.517 30.0964 248.172 30.8353C248.828 31.5742 249.334 32.4011 249.691 33.316C250.06 34.2191 250.328 35.1105 250.495 35.9901C250.662 36.8698 250.745 37.7847 250.745 38.7347C250.745 39.8255 250.662 40.8752 250.495 41.8839C250.328 42.8926 250.037 43.9188 249.62 44.9627C249.215 46.0066 248.691 46.9449 248.047 47.7776C247.416 48.5986 246.594 49.3434 245.581 50.012C244.569 50.6688 243.419 51.1555 242.133 51.4722C241.466 51.6364 240.721 51.7596 239.899 51.8417C239.078 51.9238 238.399 51.9707 237.863 51.9824C237.326 51.9941 236.57 52 235.593 52H230.09V27H237.952Z" fill="#F2F2F2"/>
<path d="M256 38.3082V41.1907L224.529 41.1907V38.3082L256 38.3082Z" fill="#F2F2F2"/>
<path fill-rule="evenodd" clip-rule="evenodd" d="M55.7882 63.9926C48.0903 65.2197 39.8115 63.7074 32.5637 59.1281C17.2154 49.4308 12.3026 29.6524 21.5906 14.9518C22.2098 13.9718 22.8764 13.0391 23.586 12.1547C16.9318 25.974 22.0213 43.2102 35.8896 51.9724C48.5343 59.9615 64.4071 58.3348 74.4038 48.9328C75.4421 45.4705 76 41.8004 76 38C76 17.0132 58.9868 0 38 0C17.0132 0 0 17.0132 0 38C0 58.9868 17.0132 76 38 76C44.1679 76 49.9926 74.5305 55.1431 71.9225C34.3695 78.0955 12.4092 66.4808 5.87481 45.733C5.50465 44.5577 5.19185 43.3781 4.93484 42.1971C12.7802 60.9681 33.7957 70.9898 53.5792 64.7591C54.3275 64.5234 55.064 64.2677 55.7882 63.9926Z" fill="#F2F2F2"/>
<path fill-rule="evenodd" clip-rule="evenodd" d="M55.7882 63.9926C48.0903 65.2197 39.8115 63.7074 32.5637 59.1281C17.2154 49.4308 12.3026 29.6524 21.5906 14.9518C22.2098 13.9718 22.8764 13.0391 23.586 12.1547C16.9318 25.974 22.0213 43.2102 35.8896 51.9724C48.5343 59.9615 64.4071 58.3348 74.4038 48.9328C75.4421 45.4705 76 41.8004 76 38C76 17.0132 58.9868 0 38 0C17.0132 0 0 17.0132 0 38C0 58.9868 17.0132 76 38 76C44.1679 76 49.9926 74.5305 55.1431 71.9225C34.3695 78.0955 12.4092 66.4808 5.87481 45.733C5.50465 44.5577 5.19185 43.3781 4.93484 42.1971C12.7802 60.9681 33.7957 70.9898 53.5792 64.7591C54.3275 64.5234 55.064 64.2677 55.7882 63.9926Z" fill="#F2F2F2"/>
</svg>
